<?xml version="1.0" encoding="utf-8"?>
<!-- Generator: Adobe Illustrator 27.1.0, SVG Export Plug-In . SVG Version: 6.00 Build 0)  -->
<svg version="1.1" id="Layer_1" xmlns="http://www.w3.org/2000/svg" xmlns:xlink="http://www.w3.org/1999/xlink" x="0px" y="0px"
	 viewBox="0 0 372.3 384.9" style="enable-background:new 0 0 372.3 384.9;" xml:space="preserve">
<style type="text/css">
	.st0{fill:#FAF9D4;}
	.st1{fill:#FAF9D4;stroke:#00A651;stroke-width:0.75;stroke-miterlimit:10;}
	.st2{fill:#F7941D;}
	.st3{fill:#BE1E2D;}
	.st4{fill:none;stroke:#BE1E2D;stroke-width:0.15;stroke-miterlimit:10;}
</style>
<g>
	<g>
		<circle class="st0" cx="186.1" cy="192.4" r="185"/>
		<circle class="st1" cx="186.1" cy="192.4" r="170.5"/>
	</g>
	<g>
		<g>
			<g>
				<path class="st2" d="M229.2,136.2c-15.5,23.7-19.5,52.3-22.6,79.9c-1.4,12.2-3.5,24.5-7.8,36.1c-3.7,10-9.3,21.2-18.4,27.4
					c3.3-0.8,6.5-1.5,9.8-2.3c-12.3-54.2-25.6-110.6-61-155c-3.3-4.1-14.4,5.1-15.9,8c-6.1,11.9-7.9,25-8.4,38.3
					c-0.5,13.6-0.6,27.1-2,40.7c-2.8,27.2-9.6,54-23.6,77.7c-2.2,3.7,3.6,2.5,5.2,1.9c3.9-1.4,8.3-4.2,10.4-7.9
					c13.7-23.3,20.9-49.8,24-76.5c1.6-13.2,1.9-26.5,2.3-39.8c0.4-13.8,1.3-27.8,7.7-40.3c-5.3,2.7-10.6,5.3-15.9,8
					c35.5,44.3,48.7,100.8,61,155c0.6,2.8,9.2-1.9,9.8-2.3c11.5-7.9,20.7-17.8,26.9-30.2c5.9-12,9.2-25.2,11.2-38.3
					c4.5-29.8,5.9-60.2,22.9-86.2c2.4-3.6-3.8-2.5-5.2-1.9C235.5,129.8,231.5,132.6,229.2,136.2L229.2,136.2z"/>
			</g>
		</g>
		<g>
			<path class="st3" d="M320.4,143.1c-0.1,0-0.2,0-0.3,0c-0.4,0-0.9,0-1.3,0c-23-10.8-52.6-7.7-64.8-4.5c0,0-0.2,0-0.4,0
				c-2-0.9-1.4-4,2.4-6.1c1.4-0.7,3.1-0.9,4.7-1.4c0,0,13-3.3,23.6-2.6c0.1,0-0.1-0.1-0.1-0.2c-0.9-1.4-2.1-2.7-3.5-3.9
				c-1.3-1.1-2.7-2.1-4.3-3c-6-3.3-12.3-5.4-18.9-6.6c-0.1,0-0.2,0-0.3,0c-6.8-1.3-13.5-1.6-20.1-1.4c-5.4,0.1-10.8,0.6-15.9,1.5
				c-3.4,0.5-6.7,1.2-10,1.9c-7.8,1.7-15.2,4.1-22.2,7c-10.8,4.5-19.7,10.6-26.5,18.5c-2.9,3.3-5.5,6.8-8.2,10.1
				c-1.5,1.9-3,3.9-4.3,5.9c-1.9,2.7-3.5,5.6-5,8.5c-4.1,8.2-7.4,16.7-9.9,25.5c0,0.1-0.1,0.2-0.1,0.3c-0.1-0.1-0.1-0.2-0.1-0.2
				c0.2-5.1,0.9-10.2,1.8-15.2c1-5,2.5-9.8,4.1-14.6c1.9-5.3,4-10.4,6.7-15.4c4.1-7.6,9.9-14.3,16.3-20.5c1.5-1.5,3.2-2.9,4.7-4.4
				c1.5-1.5,2.6-3.1,2.9-5.1c0.3-2.3-0.5-4.5-3-6.4c-2-1.5-4.3-2.3-6.7-3.1c-3.2-1.1-6.5-1.8-9.8-2.2c-0.5-0.1-1-0.1-1.7-0.2
				c0.2-0.1,0.3-0.1,0.4-0.2c2.5-0.8,5.2-1.3,8-1.6c1.9-0.2,3.9-0.4,5.9-0.5c3-0.2,6-0.3,9,0c2.3,0.2,4.6,0.5,6.8,1
				c2.7,0.5,5.3,1.2,7.9,2c2.4,0.7,4.7,1.5,7,2.3c0.4,0.1,0.7,0.1,1,0c0.5-0.2,1.1-0.4,1.6-0.5c0.1,0,0.1-0.1,0.2-0.1
				c8.4-2.3,16.9-4.5,25.9-5.7c2.2-0.3,4.4-0.5,6.7-0.7c2.4-0.2,4.8-0.3,7.2-0.4c2,0,3.9-0.1,5.9,0c2.9,0.1,5.8,0.3,8.8,0.5
				c3.5,0.3,7.1,0.7,10.6,1.3c1.4,0.2,2.8,0.5,4.1,0.8c7.9,1.6,15.6,4,22.9,7.6c3.7,1.9,7.2,4,10.4,6.6c3.9,3.2,6.6,6.9,8.7,10.9
				c0.8,1.5,2,2.9,3.6,4c1.2,0.9,2.5,1.8,3.7,2.7c2,1.5,4,2.9,5.2,4.8c0.1,0.4,0.2,0.7,0.4,1.1c0,0,0,0,0,0.1
				C322.3,142.4,321.8,143,320.4,143.1z"/>
			<path class="st4" d="M320.4,143.1c-0.5,0.1-1.1,0.1-1.6,0c-23-10.8-52.6-7.7-64.8-4.5c0,0-0.2,0-0.4,0c-2-0.9-1.4-4,2.4-6.1
				c1.4-0.7,3.1-0.9,4.7-1.4c0,0,13-3.3,23.6-2.6c-1.8-2.9-4.8-5.4-7.9-7.1c-19.9-10.7-43.9-9.3-65.1-4.7c-18,4-37.2,11.6-48.7,25.4
				c-2.9,3.3-5.5,6.8-8.2,10.1c-9.6,11.3-15.2,26.9-19.4,40c0.4-10.2,2.5-20.2,6-29.8c4.6-13.8,12.2-25.9,23-35.9
				c1.5-1.5,3.2-2.9,4.7-4.4c1.5-1.5,2.6-3.1,2.9-5.1c1.2-8.2-13.3-10.7-19.4-11.7c-0.5-0.1-1-0.1-1.7-0.2c2.7-1,5.5-1.4,8.4-1.8
				c10-1.3,20-0.6,29.7,2.5c2.4,0.7,4.7,1.5,7,2.3c1,0.3,1.9-0.4,2.9-0.5c10.4-2.9,21.5-5.5,32.6-6.4c24.2-2.1,66.4,3.4,78.5,27.3
				c2.6,4.9,9.4,6.9,12.5,11.4C322.7,141.5,322.4,143,320.4,143.1L320.4,143.1z"/>
		</g>
		<g>
			<g>
				<path class="st3" d="M232.5,129.9c-14.6,25.3-13.5,55.5-17.8,83.6c-2.1,13.8-3.7,28.9-9.5,41.8c-5.3,11.8-13.6,19-24.6,25.2
					c-1.6,0.9-8,5.2-6.3,7.8c1.6,2.6,8.4-1.5,9.8-2.3c12.3-7,23.9-15.5,31.7-27.4c8.4-12.7,11-27.3,13.6-42
					c2.9-16.1,4.3-32.2,6.1-48.4c1.8-15.4,4.9-30.6,12.7-44.1c2.1-3.7-3.6-2.5-5.2-1.9C239.1,123.5,234.6,126.3,232.5,129.9
					L232.5,129.9z"/>
			</g>
		</g>
	</g>
</g>
</svg>
